<?xml version="1.0" encoding="UTF-8" standalone="no"?>
<!DOCTYPE svg PUBLIC "-//W3C//DTD SVG 1.1//EN" "http://www.w3.org/Graphics/SVG/1.1/DTD/svg11.dtd">
<!-- Created with Vectornator (http://vectornator.io/) -->
<svg height="100%" stroke-miterlimit="10" style="fill-rule:nonzero;clip-rule:evenodd;stroke-linecap:round;stroke-linejoin:round;" version="1.1" viewBox="0 0 63.979 63.9507" width="100%" xml:space="preserve" xmlns="http://www.w3.org/2000/svg" xmlns:vectornator="http://vectornator.io" xmlns:xlink="http://www.w3.org/1999/xlink">
<defs/>
<g id="Livello-1" vectornator:layerName="Livello 1">
<path d="M31.855 59.3443L12.8442 26.693L12.7659 25.6794L12.6524 24.5799L12.6698 23.4853L12.7438 22.0836C12.7438 22.0836 12.8085 21.1371 12.8085 21.1004C12.8085 21.0637 12.9571 19.7158 12.9571 19.7158L13.269 18.5653C13.269 18.5653 13.2767 18.1946 13.4723 17.7068C13.6679 17.2189 13.4748 17.3473 13.9375 16.3983C14.4002 15.4493 14.1866 15.6552 14.8113 14.365C15.4359 13.0749 15.8971 12.8396 16.4005 12.2021C16.9039 11.5647 17.8675 10.2631 17.8675 10.2631L18.8936 9.34984L21.0945 7.77615L22.5699 6.84674L23.7966 6.21024L25.3961 5.69811L27.2129 5.05975C27.2129 5.05975 28.8028 4.82312 28.8572 4.82312C28.9116 4.82312 30.138 4.60639 30.138 4.60639L32.3858 4.60639L33.6034 4.67977L35.7981 4.86447C35.7981 4.86447 37.0873 5.08742 37.3805 5.26528C37.6737 5.44314 39.0742 5.87255 39.0742 5.87255C39.0742 5.87255 40.0832 6.50626 40.1376 6.52429C40.192 6.54233 41.7113 7.35047 41.7113 7.35047L43.1046 8.15923L43.9255 8.94001L45.6659 10.3063L46.4914 11.4552L47.2153 12.4972C47.2153 12.4972 48.159 13.6592 48.1951 13.6592C48.2312 13.6592 49.1012 15.12 49.1012 15.12L50.0409 16.5628L50.3126 17.7543L50.724 19.0525L51.0533 20.3398C51.0533 20.3398 51.1534 21.3812 51.1534 21.4356C51.1534 21.49 51.2666 22.4626 51.2666 22.4626L51.2116 23.2235L51.2657 24.0183L51.2283 25.184L51.3266 26.1237L31.855 59.3443Z" fill="#41b467" fill-rule="nonzero" opacity="1" stroke="#253031" stroke-linecap="butt" stroke-linejoin="round" stroke-width="3" vectornator:layerName="Curva 2"/>
<path d="M23.8467 22.4154C23.8467 17.6818 27.5722 13.8445 32.168 13.8445C36.7637 13.8445 40.4893 17.6818 40.4893 22.4154C40.4893 27.1489 36.7637 30.9862 32.168 30.9862C27.5722 30.9862 23.8467 27.1489 23.8467 22.4154Z" fill="#eef5db" fill-rule="nonzero" opacity="1" stroke="#253031" stroke-linecap="butt" stroke-linejoin="round" stroke-width="3" vectornator:layerName="Ovale 2"/>
</g>
</svg>
